<svg xmlns="http://www.w3.org/2000/svg" viewBox="0 0 500 500"><g id="freepik--background-complete--inject-60"><path d="M418.65,354l13.67-.28,6.73-.11c2.24,0,4.47,0,6.7-.05l-.44.44-.06-11.45.5.5L432.2,343c-4.51,0-9-.11-13.55-.17l.28-.27c0,1.88-.09,3.76-.14,5.67Zm0,0-.14-5.66c0-1.91-.11-3.85-.13-5.79v-.27h.27c4.52-.05,9-.16,13.55-.17l13.55-.06h.51v.5L446.2,354v.45h-.45c-2.28,0-4.57,0-6.85-.06l-6.81-.11Z" style="fill:#ebebeb"></path><path d="M433.77,368.4l13.67-.28,6.73-.11c2.24,0,4.47,0,6.7-.05l-.44.44L460.37,357l.5.5-13.55-.06c-4.52,0-9-.11-13.55-.17L434,357c0,1.88-.08,3.76-.13,5.67Zm0,0-.14-5.66c-.05-1.91-.11-3.85-.13-5.79v-.27h.28c4.52-.05,9-.16,13.55-.16l13.55-.07h.5v.5l-.05,11.45v.45h-.44c-2.28,0-4.57,0-6.85-.06l-6.81-.11Z" style="fill:#ebebeb"></path><rect x="403.53" y="356.95" width="27.1" height="11.45" transform="translate(834.17 725.36) rotate(180)" style="fill:#ebebeb"></rect><path d="M80.44,197l13.66-.28,6.74-.11c2.24,0,4.46,0,6.7,0l-.45.44,0-11.45.5.5L94,186c-4.52,0-9-.12-13.55-.17l.27-.27c0,1.88-.09,3.76-.13,5.67Zm0,0-.14-5.66c0-1.92-.12-3.85-.14-5.79v-.27h.28c4.51-.05,9-.16,13.55-.17l13.55-.06h.5v.5L108,197v.45h-.44c-2.29,0-4.57,0-6.85-.06l-6.82-.11Z" style="fill:#ebebeb"></path><rect x="95.56" y="199.98" width="27.1" height="11.45" transform="translate(218.21 411.41) rotate(180)" style="fill:#ebebeb"></rect><path d="M65.32,211.43,79,211.15l6.73-.11c2.24,0,4.47,0,6.7,0l-.45.44,0-11.45.5.5-13.55-.06c-4.52,0-9-.12-13.55-.17l.27-.27c0,1.88-.08,3.76-.13,5.67Zm0,0-.14-5.66c-.05-1.92-.11-3.85-.13-5.79v-.27h.28c4.52-.05,9-.16,13.55-.17l13.55-.06h.5v.5l0,11.45v.45h-.44c-2.28,0-4.57,0-6.85-.06l-6.82-.11Z" style="fill:#ebebeb"></path><rect x="54.25" y="356.95" width="27.1" height="11.45" transform="translate(135.59 725.36) rotate(180)" style="fill:#ebebeb"></rect><path d="M54.25,58.46l13.66-.28,6.74-.11c2.24,0,4.46,0,6.7,0l-.45.44L80.85,47l.5.5L67.8,47.45c-4.52,0-9-.12-13.55-.17l.27-.27c0,1.87-.09,3.76-.13,5.67Zm0,0-.15-5.67C54.06,50.88,54,49,54,47v-.27h.28c4.51-.05,9-.16,13.55-.17l13.55-.06h.5V47l-.06,11.45v.45h-.44c-2.29,0-4.57,0-6.85-.06l-6.82-.11Z" style="fill:#ebebeb"></path><rect x="39.13" y="61.45" width="27.1" height="11.45" transform="translate(105.36 134.35) rotate(180)" style="fill:#ebebeb"></rect><path d="M433.77,58.47l13.67-.27,6.73-.12c2.24,0,4.47,0,6.7,0l-.44.44L460.37,47l.5.5-13.55-.06c-4.52,0-9-.11-13.55-.16L434,47c0,1.88-.08,3.76-.13,5.67Zm0,0-.14-5.66c-.05-1.91-.11-3.85-.13-5.79v-.27h.28c4.52,0,9-.16,13.55-.16l13.55-.07h.5V47l-.05,11.45v.45h-.44c-2.28,0-4.57,0-6.85-.06l-6.81-.11Z" style="fill:#ebebeb"></path><rect x="380.93" y="215.78" width="27.1" height="11.45" transform="translate(788.96 443.01) rotate(180)" style="fill:#ebebeb"></rect><rect x="273.01" y="310.23" width="27.1" height="11.45" transform="translate(573.12 631.9) rotate(180)" style="fill:#ebebeb"></rect><path d="M298.31,86.67,284.64,87l-6.73.11c-2.24,0-4.47,0-6.7.06l.44-.45.06,11.46-.5-.5,13.55.06c4.51,0,9,.11,13.55.16l-.28.28c0-1.88.09-3.77.14-5.67Zm0,0,.14,5.67c0,1.91.11,3.84.13,5.79v.27h-.27c-4.52,0-9,.16-13.55.16l-13.55.07h-.5v-.5l.05-11.46v-.45h.45c2.28,0,4.57,0,6.85,0l6.81.12Z" style="fill:#ebebeb"></path><path d="M283.19,72.23l-13.67.28-6.73.11c-2.24,0-4.47,0-6.7.06l.44-.45.06,11.46-.5-.5,13.55.06c4.52,0,9,.11,13.55.16l-.27.28c0-1.88.08-3.77.13-5.67Zm0,0,.14,5.67c.05,1.91.11,3.84.13,5.79V84h-.28c-4.52.05-9,.16-13.55.16l-13.55.06h-.5v-.5l0-11.46v-.45h.44c2.28,0,4.57,0,6.85,0l6.81.11Z" style="fill:#ebebeb"></path><rect x="418.97" width="1" height="97.88" style="fill:#c7c7c7"></rect><polygon points="378.07 137.79 381.4 145.11 457.55 145.11 460.87 137.79 428.45 115.35 410.49 115.35 378.07 137.79" style="fill:#ebebeb"></polygon><polygon points="408.24 93.73 410.49 115.35 428.45 115.35 430.7 93.73 408.24 93.73" style="fill:#dbdbdb"></polygon><polygon points="378.07 137.79 381.4 145.12 457.55 145.12 460.87 137.79 378.07 137.79" style="fill:#dbdbdb"></polygon><rect x="335.5" width="1" height="55.23" style="fill:#c7c7c7"></rect><polygon points="294.6 95.14 297.93 102.46 374.08 102.46 377.4 95.14 344.98 72.7 327.02 72.7 294.6 95.14" style="fill:#ebebeb"></polygon><polygon points="324.77 51.08 327.02 72.7 344.98 72.7 347.23 51.08 324.77 51.08" style="fill:#dbdbdb"></polygon><polygon points="294.6 95.14 297.93 102.46 374.08 102.46 377.4 95.14 294.6 95.14" style="fill:#dbdbdb"></polygon></g><g id="freepik--Table--inject-60"><polygon points="39.13 438.65 91.85 438.41 144.56 438.32 250 438.15 355.44 438.32 408.15 438.41 460.87 438.65 408.15 438.9 355.44 438.98 250 439.15 144.56 438.98 91.85 438.89 39.13 438.65" style="fill:#263238"></polygon></g><g id="freepik--Screen--inject-60"><rect x="84.51" y="51.33" width="331.72" height="231.78" style="fill:#dbdbdb"></rect><rect x="84.51" y="51.15" width="331.72" height="9.14" style="fill:#455a64"></rect><path d="M92.43,55.72a2,2,0,1,1-2-2A2,2,0,0,1,92.43,55.72Z" style="fill:#c7c7c7"></path><path d="M100.54,55.72a2,2,0,1,1-2-2A2,2,0,0,1,100.54,55.72Z" style="fill:#fff"></path><path d="M108.66,55.72a2,2,0,1,1-2-2A2,2,0,0,1,108.66,55.72Z" style="fill:#B0BEC5"></path><rect x="113.92" y="82.93" width="272.9" height="179.46" style="fill:#fff"></rect><path d="M368.43,253.11H132.31v-.4a9,9,0,0,0-9-9H123V101.48h.25a9,9,0,0,0,9-9v-.25H368.43v.25a9,9,0,0,0,9,9h.25V243.69h-.25a9,9,0,0,0-9,9Zm-235.62-.5H367.93a9.52,9.52,0,0,1,9.27-9.41V102a9.54,9.54,0,0,1-9.27-9.27H132.81a9.54,9.54,0,0,1-9.27,9.27V243.2A9.52,9.52,0,0,1,132.81,252.61Z" style="fill:#B0BEC5"></path><path d="M177.76,121.31a7.05,7.05,0,0,1,7.06-6.93,7.25,7.25,0,0,1,4.45,1.5,1.15,1.15,0,0,1,.19,1.54,1.13,1.13,0,0,1-1.54.21,4.83,4.83,0,0,0-3.1-1.06,5.1,5.1,0,0,0-3.47,1.39,4.76,4.76,0,0,0-1.4,3.35,4.68,4.68,0,0,0,1.4,3.34,5.1,5.1,0,0,0,3.47,1.39,4.81,4.81,0,0,0,3.1-1.06,1.17,1.17,0,0,1,1.54.21,1.14,1.14,0,0,1-.19,1.54,7.19,7.19,0,0,1-4.45,1.5A7,7,0,0,1,177.76,121.31Z" style="fill:#B0BEC5"></path><path d="M193.19,127.18V115.82a1,1,0,0,1,1.06-1.06h6.3a1.06,1.06,0,0,1,1,1.06,1.08,1.08,0,0,1-1,1.08h-5.22v3.52h4.48a1.07,1.07,0,0,1,0,2.14h-4.48v3.54h5.22a1.07,1.07,0,0,1,0,2.13h-6.3A1.05,1.05,0,0,1,193.19,127.18Z" style="fill:#B0BEC5"></path><path d="M213.9,126.64a1.05,1.05,0,0,1-.67,1.34,1.66,1.66,0,0,1-.43.06h0a1.39,1.39,0,0,1-.75-.21,1.74,1.74,0,0,1-.62-.67,5.18,5.18,0,0,1-.4-2.31,1.57,1.57,0,0,0-.24-.83,1.8,1.8,0,0,0-.57-.56,3.78,3.78,0,0,0-1.08-.46h-2.27v4.18a1.07,1.07,0,0,1-1.08,1,1.05,1.05,0,0,1-1.06-1V115.82a1,1,0,0,1,1.06-1.06h3.44a4.11,4.11,0,0,1,4.12,4.14,4.06,4.06,0,0,1-1.5,3.16,3.08,3.08,0,0,1,.68.71,3.68,3.68,0,0,1,.63,2.08,4.65,4.65,0,0,0,.08,1.13A1,1,0,0,1,213.9,126.64Zm-2.69-7.74a2,2,0,0,0-2-2h-2.36v4h2.36A2,2,0,0,0,211.21,118.9Z" style="fill:#B0BEC5"></path><path d="M224.87,116.9h-3.06v10.28a1,1,0,0,1-1.05,1,1.05,1.05,0,0,1-1.06-1V116.9h-3a1.07,1.07,0,0,1-1.06-1.08,1,1,0,0,1,1.06-1.06h8.21a1.05,1.05,0,0,1,1.06,1.06A1.08,1.08,0,0,1,224.87,116.9Z" style="fill:#B0BEC5"></path><path d="M229.24,115.82a1,1,0,0,1,1.06-1.06,1.07,1.07,0,0,1,1.08,1.06v11.36a1.07,1.07,0,0,1-1.08,1,1,1,0,0,1-1.06-1Z" style="fill:#B0BEC5"></path><path d="M235,127.18V115.82a1.05,1.05,0,0,1,1.06-1.06h6.29a1.07,1.07,0,0,1,0,2.14h-5.21v3.52h4.48a1.07,1.07,0,0,1,0,2.14h-4.48v4.62a1.08,1.08,0,0,1-1.08,1A1.05,1.05,0,0,1,235,127.18Z" style="fill:#B0BEC5"></path><path d="M246.76,115.82a1,1,0,0,1,1.06-1.06,1.08,1.08,0,0,1,1.08,1.06v11.36a1.08,1.08,0,0,1-1.08,1,1,1,0,0,1-1.06-1Z" style="fill:#B0BEC5"></path><path d="M251.9,121.31a7.06,7.06,0,0,1,7.06-6.93,7.23,7.23,0,0,1,4.45,1.5,1.14,1.14,0,0,1,.19,1.54,1.12,1.12,0,0,1-1.54.21,4.83,4.83,0,0,0-3.1-1.06A5.06,5.06,0,0,0,255.5,118a4.73,4.73,0,0,0-1.41,3.35,4.65,4.65,0,0,0,1.41,3.34A5.06,5.06,0,0,0,259,126a4.81,4.81,0,0,0,3.1-1.06,1.17,1.17,0,0,1,1.54.21,1.13,1.13,0,0,1-.19,1.54,7.17,7.17,0,0,1-4.45,1.5A7,7,0,0,1,251.9,121.31Z" style="fill:#B0BEC5"></path><path d="M273.92,125.06h-4.68l-.94,2.5a1.09,1.09,0,0,1-1,.67,1,1,0,0,1-1-1.44l4.26-11.34a1.08,1.08,0,0,1,1-.67,1.06,1.06,0,0,1,1,.67l4.25,11.34a1.1,1.1,0,0,1-.63,1.39,1.11,1.11,0,0,1-1.35-.62Zm-.79-2.12-1.56-4.14L270,122.94Z" style="fill:#B0BEC5"></path><path d="M285.79,116.9h-3.06v10.28a1.06,1.06,0,0,1-2.11,0V116.9h-3.05a1.08,1.08,0,0,1-1.06-1.08,1,1,0,0,1,1.06-1.06h8.22a1.05,1.05,0,0,1,1.06,1.06A1.08,1.08,0,0,1,285.79,116.9Z" style="fill:#B0BEC5"></path><path d="M290.16,115.82a1,1,0,0,1,1.06-1.06,1.07,1.07,0,0,1,1.08,1.06v11.36a1.07,1.07,0,0,1-1.08,1,1,1,0,0,1-1.06-1Z" style="fill:#B0BEC5"></path><path d="M306.52,116.44a7.06,7.06,0,0,1,0,9.74,6.29,6.29,0,0,1-4.6,2,6.49,6.49,0,0,1-4.71-2,7.16,7.16,0,0,1,0-9.74,6.42,6.42,0,0,1,4.71-2.06A6.23,6.23,0,0,1,306.52,116.44Zm-.25,4.87a5,5,0,0,0-1.31-3.37,4.14,4.14,0,0,0-6.15,0,4.88,4.88,0,0,0-1.31,3.37,4.79,4.79,0,0,0,1.31,3.34,4.1,4.1,0,0,0,6.15,0A4.88,4.88,0,0,0,306.27,121.31Z" style="fill:#B0BEC5"></path><path d="M313.88,127.18a1.05,1.05,0,1,1-2.1,0V116a1,1,0,0,1,.42-.88,1.06,1.06,0,0,1,1.46.23l6.22,8.6V116a1.05,1.05,0,0,1,1-1,1.07,1.07,0,0,1,1.06,1v11.19a1.07,1.07,0,0,1-1.06,1,1,1,0,0,1-.79-.38.31.31,0,0,1-.09-.12l-6.16-8.54Z" style="fill:#B0BEC5"></path><path d="M214.18,142.82q9.06-.13,18.1-.19l18.09,0,18.1,0q9,.06,18.09.19-9,.15-18.09.2l-18.1,0-18.09,0Q223.24,143,214.18,142.82Z" style="fill:#263238"></path><polygon points="194.07 148.46 208.14 148.33 222.22 148.29 250.37 148.21 278.52 148.29 292.6 148.33 306.68 148.46 292.6 148.58 278.52 148.62 250.37 148.71 222.22 148.62 208.14 148.58 194.07 148.46" style="fill:#263238"></polygon><path d="M275.37,217.84q9.18-.14,18.35-.19l18.35-.06,18.35.06q9.18,0,18.35.19-9.16.14-18.35.19l-18.35.06L293.72,218Q284.54,218,275.37,217.84Z" style="fill:#263238"></path><path d="M152,217.84q9.18-.14,18.35-.19l18.35-.06,18.35.06q9.18,0,18.36.19Q216.2,218,207,218l-18.35.06L170.32,218Q161.14,218,152,217.84Z" style="fill:#263238"></path><polygon points="317.68 176.27 300.85 176.39 284.02 176.43 250.37 176.51 216.72 176.43 199.89 176.39 183.07 176.27 199.89 176.14 216.72 176.1 250.37 176.02 284.02 176.1 300.85 176.14 317.68 176.27" style="fill:#263238"></polygon><polygon points="335.43 170.63 314.17 170.76 292.9 170.8 250.37 170.88 207.84 170.8 186.57 170.76 165.31 170.63 186.57 170.51 207.84 170.47 250.37 170.39 292.9 170.47 314.17 170.51 335.43 170.63" style="fill:#263238"></polygon><polygon points="330.07 181.9 310.14 182.02 290.22 182.06 250.37 182.15 210.52 182.06 190.6 182.02 170.67 181.9 190.6 181.77 210.52 181.73 250.37 181.65 290.22 181.73 310.14 181.78 330.07 181.9" style="fill:#263238"></polygon><polygon points="295.64 187.53 284.32 187.65 273.01 187.69 250.37 187.78 227.74 187.69 216.42 187.65 205.1 187.53 216.42 187.41 227.74 187.36 250.37 187.28 273.01 187.36 284.32 187.41 295.64 187.53" style="fill:#263238"></polygon><path d="M288.54,214.1q1.84-1.28,3.8-2.4a18.34,18.34,0,0,1,4.11-1.85,5.54,5.54,0,0,1,.56-.11.61.61,0,0,1,.63.21,2.15,2.15,0,0,1,.26,1.17,14.07,14.07,0,0,1-.23,2.25c-.26,1.48-.63,2.94-1,4.38a67.32,67.32,0,0,1-3,8.49,12.56,12.56,0,0,1-1.06,2,2.94,2.94,0,0,1-.41.47.59.59,0,0,1-.39.17.46.46,0,0,1-.27-.09l-.13-.14a2.19,2.19,0,0,1-.32-1.2,14.89,14.89,0,0,1,.79-4.47,25.68,25.68,0,0,1,1.69-4.19,12.67,12.67,0,0,1,2.63-3.67,4.17,4.17,0,0,1,2.07-1,2.5,2.5,0,0,1,1.18.1,1.8,1.8,0,0,1,.82.84,5.09,5.09,0,0,0,.62.9.91.91,0,0,0,.91.3,5.91,5.91,0,0,0,1.88-1.1c.3-.22.59-.46.9-.67a4.14,4.14,0,0,1,.5-.3.57.57,0,0,1,.62,0c.29.37.22.76.36,1.09a.67.67,0,0,0,.77.49,7,7,0,0,0,1.65-1.44c.5-.54,1-1.11,1.49-1.67,1-1.13,1.94-2.28,2.94-3.39.5-.56,1-1.11,1.55-1.64a8.8,8.8,0,0,1,.86-.74,2.85,2.85,0,0,1,.51-.3.8.8,0,0,1,.33-.08.41.41,0,0,1,.34.19,2,2,0,0,1,.16,1.19,10.06,10.06,0,0,1-.18,1.12,22.6,22.6,0,0,1-.6,2.18,22.12,22.12,0,0,1-1.79,4.16,4.74,4.74,0,0,1-.71.94.82.82,0,0,1-.66.26,1.79,1.79,0,0,1-.6-.17,2.78,2.78,0,0,1-1.51-1.83,1,1,0,0,1,.09-.7.71.71,0,0,1,.29-.28.69.69,0,0,1,.38-.08,4,4,0,0,1,1.16.27c.72.25,1.41.56,2.1.86s1.37.6,2.05.88c.35.13.69.27,1,.37a3.38,3.38,0,0,0,.49.11.77.77,0,0,0,.41-.09c.57-.28.94-1,1.51-1.53a1.78,1.78,0,0,1,1.14-.59.58.58,0,0,1,.46.15.59.59,0,0,1,.16.46,3.33,3.33,0,0,1-.11.61c-.11.33-.15.76-.05.78s.54,0,.85-.05a5.72,5.72,0,0,0,1.89-1c.3-.21.61-.44.95-.64a1.86,1.86,0,0,1,1.25-.3,4.66,4.66,0,0,1,1.92,1.39,4.53,4.53,0,0,0,.8.69c.13.09.26.11.29.08a3.07,3.07,0,0,0,.43-.26,18.57,18.57,0,0,0,1.68-1.42,19,19,0,0,0,2.9-3.33,3.83,3.83,0,0,0,.72-1.94c0-.67-.69-1-1.41-1.09a12.17,12.17,0,0,0-4.38.06,11.69,11.69,0,0,0-2.12.6,4.81,4.81,0,0,0-1,.52c-.27.2-.52.49-.44.76a1.34,1.34,0,0,0,.71.65,10.52,10.52,0,0,0,1,.41c.7.24,1.41.46,2.13.63a49.09,49.09,0,0,0,8.91.85v.05a47.14,47.14,0,0,1-8.95-.65,20.74,20.74,0,0,1-2.18-.61c-.35-.13-.71-.24-1.06-.41a1.6,1.6,0,0,1-.88-.84,1.1,1.1,0,0,1,.54-1.1,4.28,4.28,0,0,1,1-.57,10.32,10.32,0,0,1,2.18-.65,12.58,12.58,0,0,1,4.54-.13,3.11,3.11,0,0,1,1.13.39,1.36,1.36,0,0,1,.65,1.1,4.07,4.07,0,0,1-.77,2.23,18.43,18.43,0,0,1-2.95,3.45,16.47,16.47,0,0,1-1.74,1.47,3.23,3.23,0,0,1-.53.32.85.85,0,0,1-.77-.11,5.67,5.67,0,0,1-.89-.77,4.51,4.51,0,0,0-1.65-1.24c-.55-.08-1.19.43-1.78.85a6.29,6.29,0,0,1-2.07,1.08,1.72,1.72,0,0,1-1.33-.05.8.8,0,0,1-.25-.75,3.54,3.54,0,0,1,.12-.6,2.57,2.57,0,0,0,.09-.49c0-.06,0-.09,0-.06s0,0-.07,0a1.33,1.33,0,0,0-.8.43c-.51.47-.86,1.2-1.65,1.62a1.17,1.17,0,0,1-.67.13,2.77,2.77,0,0,1-.6-.13c-.37-.11-.72-.25-1.07-.39-.7-.29-1.38-.6-2.07-.9s-1.36-.61-2.05-.85a3.76,3.76,0,0,0-1-.26c-.24,0-.38.2-.31.52a2.36,2.36,0,0,0,1.24,1.53,1.59,1.59,0,0,0,.47.14c.1,0,.21,0,.34-.16a4,4,0,0,0,.64-.84,21.66,21.66,0,0,0,1.81-4,20.73,20.73,0,0,0,.61-2.14,8.29,8.29,0,0,0,.19-1.09,1.81,1.81,0,0,0-.08-1c-.11-.19-.53,0-.8.25a9.29,9.29,0,0,0-.84.71c-.54.51-1.05,1.06-1.55,1.61-1,1.1-2,2.24-3,3.36-.5.56-1,1.12-1.51,1.67a6.5,6.5,0,0,1-1.74,1.46.83.83,0,0,1-1-.58c-.14-.36-.13-.8-.33-1s-.27,0-.43.06a3.21,3.21,0,0,0-.46.29c-.3.21-.59.45-.89.68a6.08,6.08,0,0,1-1.95,1.16,1.14,1.14,0,0,1-1.12-.35,5.73,5.73,0,0,1-.67-.93c-.2-.31-.4-.64-.7-.74a2.32,2.32,0,0,0-1-.07,3.91,3.91,0,0,0-1.91.94,12.54,12.54,0,0,0-2.52,3.61,25.8,25.8,0,0,0-1.63,4.14,14.83,14.83,0,0,0-.72,4.34,1.79,1.79,0,0,0,.23.94l.06.07s0,0,0,0a.25.25,0,0,0,.1-.07,2.07,2.07,0,0,0,.32-.38,17.06,17.06,0,0,0,1-1.94,67.32,67.32,0,0,0,3-8.4,44.3,44.3,0,0,0,1.07-4.34,11.77,11.77,0,0,0,.25-2.2,1.87,1.87,0,0,0-.19-1c-.09-.12-.18-.15-.38-.11a3.29,3.29,0,0,0-.53.1,19.06,19.06,0,0,0-4.09,1.74c-1.31.71-2.6,1.48-3.85,2.29Z" style="fill:#263238"></path><path d="M206.85,214.1q-1.84-1.28-3.8-2.4a18.34,18.34,0,0,0-4.11-1.85,5.22,5.22,0,0,0-.57-.11.6.6,0,0,0-.62.21,2.15,2.15,0,0,0-.26,1.17,13,13,0,0,0,.23,2.25c.26,1.48.63,2.94,1,4.38a67.32,67.32,0,0,0,3,8.49,12.56,12.56,0,0,0,1.06,2,2.51,2.51,0,0,0,.41.47.59.59,0,0,0,.39.17.48.48,0,0,0,.27-.09l.13-.14a2.28,2.28,0,0,0,.32-1.2,15.21,15.21,0,0,0-.79-4.47,26.6,26.6,0,0,0-1.69-4.19,12.71,12.71,0,0,0-2.64-3.67,4.09,4.09,0,0,0-2.07-1,2.46,2.46,0,0,0-1.17.1,1.8,1.8,0,0,0-.82.84,5.09,5.09,0,0,1-.62.9.92.92,0,0,1-.91.3,5.8,5.8,0,0,1-1.88-1.1c-.3-.22-.6-.46-.91-.67a3.37,3.37,0,0,0-.49-.3.57.57,0,0,0-.62,0c-.29.37-.22.76-.36,1.09a.67.67,0,0,1-.77.49,6.58,6.58,0,0,1-1.65-1.44c-.51-.54-1-1.11-1.49-1.67-1-1.13-1.94-2.28-2.94-3.39-.5-.56-1-1.11-1.55-1.64a8.8,8.8,0,0,0-.86-.74,2.85,2.85,0,0,0-.51-.3.84.84,0,0,0-.33-.08.45.45,0,0,0-.35.19,2,2,0,0,0-.15,1.19,10.06,10.06,0,0,0,.18,1.12,22.6,22.6,0,0,0,.6,2.18,22.12,22.12,0,0,0,1.79,4.16,4.74,4.74,0,0,0,.71.94.82.82,0,0,0,.66.26,1.79,1.79,0,0,0,.6-.17,2.78,2.78,0,0,0,1.51-1.83,1.1,1.1,0,0,0-.09-.7.78.78,0,0,0-.29-.28.72.72,0,0,0-.39-.08,4.19,4.19,0,0,0-1.16.27c-.72.25-1.4.56-2.09.86s-1.37.6-2.06.88c-.34.13-.68.27-1,.37a3.22,3.22,0,0,1-.5.11.79.79,0,0,1-.41-.09c-.56-.28-.94-1-1.5-1.53a1.81,1.81,0,0,0-1.14-.59.58.58,0,0,0-.46.15.59.59,0,0,0-.16.46,3.33,3.33,0,0,0,.11.61c.1.33.15.76.05.78s-.54,0-.85-.05a5.72,5.72,0,0,1-1.89-1c-.3-.21-.61-.44-1-.64a1.82,1.82,0,0,0-1.24-.3,4.66,4.66,0,0,0-1.92,1.39,4.53,4.53,0,0,1-.8.69c-.13.09-.26.11-.29.08a3.07,3.07,0,0,1-.43-.26,17.4,17.4,0,0,1-1.69-1.42,19.41,19.41,0,0,1-2.89-3.33A3.74,3.74,0,0,1,160,209c0-.67.69-1,1.4-1.09a12.23,12.23,0,0,1,4.39.06,11.93,11.93,0,0,1,2.12.6,5.46,5.46,0,0,1,1,.52c.27.2.52.49.44.76a1.33,1.33,0,0,1-.72.65,10.33,10.33,0,0,1-1,.41,22,22,0,0,1-2.14.63,48.89,48.89,0,0,1-8.9.85v.05a47.19,47.19,0,0,0,9-.65,20.74,20.74,0,0,0,2.18-.61c.35-.13.71-.24,1.06-.41a1.6,1.6,0,0,0,.88-.84,1.1,1.1,0,0,0-.54-1.1,4.48,4.48,0,0,0-1-.57,10.5,10.5,0,0,0-2.18-.65,12.59,12.59,0,0,0-4.54-.13,3.22,3.22,0,0,0-1.14.39,1.38,1.38,0,0,0-.65,1.1,4.24,4.24,0,0,0,.77,2.23,18.11,18.11,0,0,0,3,3.45,16.47,16.47,0,0,0,1.74,1.47,3.58,3.58,0,0,0,.52.32.84.84,0,0,0,.77-.11,5.34,5.34,0,0,0,.9-.77,4.51,4.51,0,0,1,1.65-1.24c.55-.08,1.19.43,1.78.85a6.29,6.29,0,0,0,2.07,1.08,1.7,1.7,0,0,0,1.32-.05.79.79,0,0,0,.26-.75,3.54,3.54,0,0,0-.12-.6,2.57,2.57,0,0,1-.09-.49c0-.06,0-.09,0-.06s0,0,.07,0a1.33,1.33,0,0,1,.8.43c.51.47.85,1.2,1.64,1.62a1.22,1.22,0,0,0,.68.13,2.77,2.77,0,0,0,.6-.13c.37-.11.72-.25,1.07-.39.7-.29,1.38-.6,2.07-.9s1.36-.61,2.05-.85a3.76,3.76,0,0,1,1-.26c.24,0,.38.2.31.52a2.36,2.36,0,0,1-1.24,1.53,1.59,1.59,0,0,1-.47.14c-.1,0-.21,0-.34-.16a4,4,0,0,1-.64-.84,21.66,21.66,0,0,1-1.81-4c-.24-.71-.45-1.42-.62-2.14a8.26,8.26,0,0,1-.18-1.09,1.81,1.81,0,0,1,.08-1c.11-.19.53,0,.8.25a9.29,9.29,0,0,1,.84.71c.54.51,1,1.06,1.55,1.61,1,1.1,2,2.24,3,3.36.5.56,1,1.12,1.51,1.67a6.62,6.62,0,0,0,1.73,1.46.84.84,0,0,0,1-.58c.14-.36.13-.8.32-1s.28,0,.43.06a3.31,3.31,0,0,1,.47.29c.3.21.59.45.89.68a6.08,6.08,0,0,0,1.95,1.16,1.14,1.14,0,0,0,1.12-.35,5.73,5.73,0,0,0,.67-.93c.2-.31.4-.64.7-.74a2.31,2.31,0,0,1,1-.07,3.91,3.91,0,0,1,1.91.94,12.54,12.54,0,0,1,2.52,3.61,25.75,25.75,0,0,1,1.62,4.14,14.52,14.52,0,0,1,.73,4.34,1.89,1.89,0,0,1-.23.94l-.07.07h0a.25.25,0,0,1-.1-.07,2.07,2.07,0,0,1-.32-.38,15.61,15.61,0,0,1-1-1.94,67.37,67.37,0,0,1-3-8.4c-.41-1.44-.79-2.88-1.07-4.34a13.73,13.73,0,0,1-.25-2.2,2,2,0,0,1,.2-1c.09-.12.18-.15.38-.11a3.51,3.51,0,0,1,.53.1,19.27,19.27,0,0,1,4.09,1.74c1.31.71,2.6,1.48,3.85,2.29Z" style="fill:#263238"></path><path d="M250.86,198.22h0a.93.93,0,0,0,1.64.17h0a.93.93,0,0,1,1.69.36h0a.93.93,0,0,0,1.56.51h0a.92.92,0,0,1,1.57.7h0a.93.93,0,0,0,1.43.82h0a.92.92,0,0,1,1.39,1h0a.93.93,0,0,0,1.23,1.1h0a.93.93,0,0,1,1.15,1.29h0a.93.93,0,0,0,1,1.33h0a.93.93,0,0,1,.86,1.49h0a.93.93,0,0,0,.67,1.5h0a.93.93,0,0,1,.53,1.64h0a.93.93,0,0,0,.34,1.61h0a.93.93,0,0,1,.18,1.72h0a.93.93,0,0,0,0,1.64h0a.93.93,0,0,1-.18,1.72h0a.92.92,0,0,0-.34,1.6h0a.94.94,0,0,1-.53,1.65h0a.93.93,0,0,0-.67,1.5h0a.93.93,0,0,1-.86,1.49h0a.93.93,0,0,0-1,1.33h0a.93.93,0,0,1-1.15,1.28h0a.94.94,0,0,0-1.23,1.1h0a.93.93,0,0,1-1.39,1h0a.93.93,0,0,0-1.43.82h0a.92.92,0,0,1-1.57.7h0a.93.93,0,0,0-1.56.51h0a.93.93,0,0,1-1.69.36h0a.93.93,0,0,0-1.64.17h0a.92.92,0,0,1-1.72,0h0a.93.93,0,0,0-1.64-.17h0a.93.93,0,0,1-1.69-.36h0a.93.93,0,0,0-1.56-.51h0a.92.92,0,0,1-1.57-.7h0a.93.93,0,0,0-1.43-.82h0a.93.93,0,0,1-1.39-1h0a.94.94,0,0,0-1.23-1.1h0a.93.93,0,0,1-1.15-1.28h0a.93.93,0,0,0-1-1.33h0a.93.93,0,0,1-.86-1.49h0a.93.93,0,0,0-.67-1.5h0a.94.94,0,0,1-.53-1.65h0a.92.92,0,0,0-.34-1.6h0a.93.93,0,0,1-.18-1.72h0a.93.93,0,0,0,0-1.64h0a.93.93,0,0,1,.18-1.72h0a.93.93,0,0,0,.34-1.61h0a.93.93,0,0,1,.53-1.64h0a.93.93,0,0,0,.67-1.5h0a.93.93,0,0,1,.86-1.49h0a.93.93,0,0,0,1-1.33h0a.93.93,0,0,1,1.15-1.29h0a.93.93,0,0,0,1.23-1.1h0a.92.92,0,0,1,1.39-1h0a.93.93,0,0,0,1.43-.82h0a.92.92,0,0,1,1.57-.7h0a.93.93,0,0,0,1.56-.51h0a.93.93,0,0,1,1.69-.36h0a.93.93,0,0,0,1.64-.17h0A.92.92,0,0,1,250.86,198.22Z" style="fill:#B0BEC5"></path><circle cx="250" cy="214.29" r="14.4" transform="translate(-65.86 121.28) rotate(-24.19)" style="fill:#fff"></circle><path d="M250,227.76a13.48,13.48,0,1,1,13.48-13.47A13.49,13.49,0,0,1,250,227.76Zm0-26.45a13,13,0,1,0,13,13A13,13,0,0,0,250,201.31Z" style="fill:#B0BEC5"></path><rect x="228.14" y="210.15" width="43.72" height="8.28" style="fill:#fff"></rect><path d="M233.89,214.37A2.41,2.41,0,0,1,236.3,212a2.48,2.48,0,0,1,1.52.51.4.4,0,0,1,.06.53.38.38,0,0,1-.52.07,1.62,1.62,0,0,0-1.06-.36,1.73,1.73,0,0,0-1.18.47,1.6,1.6,0,0,0-.48,1.14,1.57,1.57,0,0,0,.48,1.14,1.74,1.74,0,0,0,1.18.48,1.65,1.65,0,0,0,1.06-.37.39.39,0,0,1,.52.08.39.39,0,0,1-.06.52,2.48,2.48,0,0,1-1.52.51A2.4,2.4,0,0,1,233.89,214.37Z" style="fill:#B0BEC5"></path><path d="M239.16,216.37V212.5a.36.36,0,0,1,.36-.36h2.15a.37.37,0,0,1,0,.73h-1.78v1.2h1.53a.37.37,0,0,1,0,.73h-1.53V216h1.78a.36.36,0,1,1,0,.72h-2.15A.36.36,0,0,1,239.16,216.37Z" style="fill:#B0BEC5"></path><path d="M246.22,216.19a.36.36,0,0,1-.23.46l-.14,0h0a.45.45,0,0,1-.25-.07.66.66,0,0,1-.21-.23,1.8,1.8,0,0,1-.14-.79.52.52,0,0,0-.08-.28.52.52,0,0,0-.2-.19.94.94,0,0,0-.36-.16h-.78v1.42a.37.37,0,0,1-.73,0V212.5a.36.36,0,0,1,.36-.36h1.18a1.4,1.4,0,0,1,1.4,1.41,1.38,1.38,0,0,1-.51,1.08.76.76,0,0,1,.23.24,1.25,1.25,0,0,1,.22.71,1.8,1.8,0,0,0,0,.39A.34.34,0,0,1,246.22,216.19Zm-.91-2.64a.68.68,0,0,0-.68-.68h-.81v1.35h.81A.68.68,0,0,0,245.31,213.55Z" style="fill:#B0BEC5"></path><path d="M250,212.87h-1.05v3.5a.35.35,0,0,1-.36.36.36.36,0,0,1-.36-.36v-3.5h-1a.36.36,0,0,1-.36-.37.35.35,0,0,1,.36-.36H250a.36.36,0,0,1,.36.36A.37.37,0,0,1,250,212.87Z" style="fill:#B0BEC5"></path><path d="M251.46,212.5a.36.36,0,0,1,.36-.36.37.37,0,0,1,.37.36v3.87a.36.36,0,0,1-.37.36.35.35,0,0,1-.36-.36Z" style="fill:#B0BEC5"></path><path d="M253.42,216.37V212.5a.36.36,0,0,1,.36-.36h2.15a.37.37,0,0,1,.36.36.37.37,0,0,1-.36.37h-1.78v1.2h1.53a.37.37,0,0,1,0,.73h-1.53v1.57a.37.37,0,0,1-.37.36A.36.36,0,0,1,253.42,216.37Z" style="fill:#B0BEC5"></path><path d="M257.44,212.5a.36.36,0,0,1,.36-.36.37.37,0,0,1,.37.36v3.87a.36.36,0,0,1-.37.36.35.35,0,0,1-.36-.36Z" style="fill:#B0BEC5"></path><path d="M259.4,216.37V212.5a.35.35,0,0,1,.36-.36h2.14a.37.37,0,0,1,0,.73h-1.78v1.2h1.53a.37.37,0,0,1,0,.73h-1.53V216h1.78a.36.36,0,1,1,0,.72h-2.14A.35.35,0,0,1,259.4,216.37Z" style="fill:#B0BEC5"></path><path d="M263.29,216.37V212.5a.36.36,0,0,1,.36-.36h.78a2.3,2.3,0,0,1,0,4.59h-.78A.36.36,0,0,1,263.29,216.37ZM264,216h.41a1.58,1.58,0,0,0,1.56-1.58,1.56,1.56,0,0,0-1.56-1.56H264Z" style="fill:#B0BEC5"></path></g><g id="freepik--Label--inject-60"><polygon points="399.95 293.26 408.97 282.41 422.7 285.63 405.88 235.49 383.13 243.13 399.95 293.26" style="fill:#455a64"></polygon><polygon points="391.48 267.99 383.13 243.13 405.88 235.49 391.48 267.99" style="fill:#37474f"></polygon><polygon points="402.94 236.49 419.14 284.79 419.64 284.91 403.35 236.35 402.94 236.49" style="fill:#fff"></polygon><polygon points="385.66 242.28 401.95 290.84 402.29 290.45 386.08 242.14 385.66 242.28" style="fill:#fff"></polygon><polygon points="357.34 293.18 370.86 289.16 380.5 299.46 396.14 241.77 372.99 235.49 357.34 293.18" style="fill:#455a64"></polygon><polygon points="393.14 240.97 378 296.79 378.35 297.16 393.56 241.08 393.14 240.97" style="fill:#fff"></polygon><polygon points="375.56 236.2 360.35 292.28 360.84 292.14 375.99 236.31 375.56 236.2" style="fill:#fff"></polygon><path d="M392,179.62h0a2.11,2.11,0,0,0,3.71.39h0a2.11,2.11,0,0,1,3.83.82h0a2.11,2.11,0,0,0,3.55,1.15h0a2.11,2.11,0,0,1,3.58,1.59h0a2.11,2.11,0,0,0,3.23,1.87h0a2.11,2.11,0,0,1,3.17,2.3h0a2.11,2.11,0,0,0,2.78,2.5h0a2.11,2.11,0,0,1,2.62,2.91h0a2.11,2.11,0,0,0,2.19,3h0a2.11,2.11,0,0,1,2,3.39h0a2.11,2.11,0,0,0,1.52,3.41h0a2.11,2.11,0,0,1,1.21,3.73h0a2.11,2.11,0,0,0,.78,3.65h0a2.11,2.11,0,0,1,.41,3.9h0a2.11,2.11,0,0,0,0,3.73h0a2.11,2.11,0,0,1-.41,3.9h0a2.11,2.11,0,0,0-.78,3.65h0a2.1,2.1,0,0,1-1.21,3.72h0a2.11,2.11,0,0,0-1.52,3.41h0a2.11,2.11,0,0,1-2,3.4h0a2.11,2.11,0,0,0-2.19,3h0a2.11,2.11,0,0,1-2.62,2.91h0a2.11,2.11,0,0,0-2.78,2.5h0a2.11,2.11,0,0,1-3.17,2.3h0a2.11,2.11,0,0,0-3.23,1.87h0a2.11,2.11,0,0,1-3.58,1.59h0a2.11,2.11,0,0,0-3.55,1.15h0a2.11,2.11,0,0,1-3.83.82h0a2.11,2.11,0,0,0-3.71.39h0a2.11,2.11,0,0,1-3.92,0h0a2.11,2.11,0,0,0-3.71-.39h0a2.11,2.11,0,0,1-3.83-.82h0a2.11,2.11,0,0,0-3.55-1.15h0a2.11,2.11,0,0,1-3.58-1.59h0a2.12,2.12,0,0,0-3.24-1.87h0a2.11,2.11,0,0,1-3.17-2.3h0a2.11,2.11,0,0,0-2.77-2.5h0a2.11,2.11,0,0,1-2.62-2.91h0a2.11,2.11,0,0,0-2.19-3h0a2.11,2.11,0,0,1-2-3.4h0a2.11,2.11,0,0,0-1.52-3.41h0a2.1,2.1,0,0,1-1.21-3.72h0a2.11,2.11,0,0,0-.78-3.65h0a2.11,2.11,0,0,1-.41-3.9h0a2.11,2.11,0,0,0,0-3.73h0a2.11,2.11,0,0,1,.41-3.9h0a2.11,2.11,0,0,0,.78-3.65h0a2.11,2.11,0,0,1,1.21-3.73h0a2.11,2.11,0,0,0,1.52-3.41h0a2.11,2.11,0,0,1,2-3.39h0a2.11,2.11,0,0,0,2.19-3h0a2.11,2.11,0,0,1,2.62-2.91h0a2.11,2.11,0,0,0,2.77-2.5h0a2.11,2.11,0,0,1,3.17-2.3h0a2.12,2.12,0,0,0,3.24-1.87h0A2.11,2.11,0,0,1,377,182h0a2.11,2.11,0,0,0,3.55-1.15h0a2.11,2.11,0,0,1,3.83-.82h0a2.11,2.11,0,0,0,3.71-.39h0A2.11,2.11,0,0,1,392,179.62Z" style="fill:#B0BEC5"></path><circle cx="390.02" cy="216.11" r="32.69" transform="translate(78.87 535.5) rotate(-74.74)" style="fill:#fff"></circle><path d="M390,246.52a30.41,30.41,0,1,1,30.41-30.41A30.44,30.44,0,0,1,390,246.52Zm0-60.06a29.66,29.66,0,1,0,29.66,29.65A29.69,29.69,0,0,0,390,186.46Z" style="fill:#B0BEC5"></path><polygon points="386.64 234.31 368.72 216.39 376.07 209.03 386.64 219.6 420.29 185.95 427.64 193.31 386.64 234.31" style="fill:#455a64"></polygon></g><g id="freepik--Character--inject-60"><polygon points="44.27 438.65 171.49 438.65 146.13 291.09 50.99 291.09 44.27 438.65" style="fill:#dbdbdb"></polygon><polygon points="44.27 438.65 55.42 438.65 61.68 291.09 50.99 291.09 44.27 438.65" style="fill:#a6a6a6"></polygon><path d="M144.09,314.09c15.92,33,53.66,87.49,69.46,73.28,23.64-21.24,38.72-67.18,44.7-85.74,3.35-10.41-49.61-26.17-52.56-16.73-4.2,13.43-10.59,41.4-14.64,45.45-2.13,2.13-20-21.51-33.31-32.59C138.51,281.79,139,303.56,144.09,314.09Z" style="fill:#eb9481"></path><path d="M269.47,279.23c-2.26,11.29-15.9,32.57-21.17,36.44S206,298.6,205.16,291.94,215,246.81,224,239.26,271.81,267.54,269.47,279.23Z" style="fill:#eb9481"></path><path d="M206,284.19s-2.54-14.75-9-26.26c-5.42-9.67-14.57-23.42-9.48-26.54,10.46-6.39,33.26,27.92,33.26,27.92s7.63,16.75-2.17,24C212.42,287.85,206,284.19,206,284.19Z" style="fill:#eb9481"></path><path d="M212.49,253.66c2.08,5.73,7.65,0,7.65,0s-6,10.17-1.61,15.26c4.27,4.89,10.76-2.26,11.23-2.77-.31.54-5.62,10-.64,14.69,5.17,4.84,10.45-3.46,10.79-4-.14.6-1.81,8.62,2.77,11.3,7.87,4.6,12.72-15.79,19.16-19.39,0,0,7.35,10.22,7.63,10.47,0,0,5-19.3-.34-27.72a6.37,6.37,0,0,0-7.51-2.69s2.3-6-1.5-9.83c-1.95-1.94-6.8-.54-6.8-.54s1.65-4.91-1.94-8.07c-2.86-2.53-7.27-.73-7.27-.73s-.62-5.46-4.37-7.09C232.17,219.24,208.07,241.37,212.49,253.66Z" style="fill:#eb9481"></path><path d="M243.37,229.82c.08-.06,0-.2-.09-.14-9.7,5.34-18.72,14.18-23.47,24.26-.16.33.31.73.55.4C227.24,244.89,234.1,237.05,243.37,229.82Z" style="fill:#263238"></path><path d="M253.4,238.29c.1-.07,0-.24-.15-.18-10,5.57-19.85,15.81-23.95,28.07-.15.42.15.94.35.47C233,258.7,245,244.76,253.4,238.29Z" style="fill:#263238"></path><path d="M239.92,277.8c4.39-11.6,12.06-20.63,21.27-28.77.12-.11,0-.27-.17-.21-5.59,2.76-10.92,8.56-14.68,13.43a32.69,32.69,0,0,0-6.83,15.4C239.48,277.88,239.82,278.05,239.92,277.8Z" style="fill:#263238"></path><path d="M219.94,253.7c-.19.4.6.24.42.64-.73,1.69-4.26,12.27-1,14.59,2.59,1.85,6.88-.34,8.2-1.83l3.31-3.75L229,268a20.4,20.4,0,0,0-1.41,6.48,7.29,7.29,0,0,0,1.84,5.69,4.17,4.17,0,0,0,5.2.76,12.61,12.61,0,0,0,4.38-4.58l3.06-5.07-1.23,5.77a19.52,19.52,0,0,0-.41,4.89,8,8,0,0,0,1.34,4.37,3.78,3.78,0,0,0,3.69,1.48,8.37,8.37,0,0,0,3.83-2.65,65.36,65.36,0,0,0,6-8.37c1-1.45,1.89-2.91,2.91-4.33a12.38,12.38,0,0,1,3.65-3.7,13.28,13.28,0,0,0-3.25,4c-.9,1.47-1.72,3-2.56,4.51a56,56,0,0,1-5.64,8.87,9.72,9.72,0,0,1-4.5,3.32,5.32,5.32,0,0,1-5.51-2,9.67,9.67,0,0,1-1.81-5.38,20.8,20.8,0,0,1,.37-5.45l1.83.7a14.44,14.44,0,0,1-5.11,5.46,6.06,6.06,0,0,1-4,.75,6.82,6.82,0,0,1-3.57-1.92c-2-1.95-2.47-4.79-2.34-7.2a22.45,22.45,0,0,1,1.67-7.1l1.5.92c-1.73,1.84-6.26,4.82-10.64,2.45C213,266.75,218.74,255.66,219.94,253.7Z" style="fill:#263238"></path><path d="M220.14,253.67a12.41,12.41,0,0,1-3.37,1.63,2.84,2.84,0,0,1-2.81-.59,5.79,5.79,0,0,1-1.28-3c-.21-1.21-.36-2.49-.46-3.82a9.76,9.76,0,0,0-.87,3.94,5.68,5.68,0,0,0,1.43,4.12,4.11,4.11,0,0,0,2.19,1,4.23,4.23,0,0,0,2.26-.43A6.57,6.57,0,0,0,220.14,253.67Z" style="fill:#263238"></path><path d="M202.52,286l55.7,36.5S227.5,391,207.33,391.4s-50.72-49.42-61.42-71-5.19-40.32,15.69-20.93,28.39,27.37,29,27.09C191.91,326,202.52,286,202.52,286Z" style="fill:#B0BEC5"></path><path d="M258.22,322.5s-21.3,47.52-40.08,63.63c-3.76,3.24-7.43,5.21-10.81,5.27-20.17.39-50.72-49.43-61.43-71-6.63-13.37-7-25.64-1.42-28.43,3.45-1.73,9.17.12,17.12,7.5,21,19.51,28.39,27.37,29,27.08C191.9,326,202.53,286,202.53,286Z" style="fill:#B0BEC5"></path><path d="M245.48,329.2c-1.48-1.15-3-2.27-4.47-3.39q-4.55-3.4-9.13-6.77c-6.06-4.47-12.24-8.76-18.47-13-3.54-2.4-7-4.94-10.65-7.18a.16.16,0,0,0-.19.26c2.91,2.43,6,4.63,9,6.93s6,4.61,9.06,6.86q9.12,6.68,18.41,13.07c1.74,1.2,3.44,2.48,5.23,3.6.92.57,1.79,1.22,2.72,1.78s1.9,1.06,2.81,1.65a.09.09,0,1,0,.1-.15C248.42,331.69,247,330.39,245.48,329.2Z" style="fill:#263238"></path><path d="M191.08,325.29a134.9,134.9,0,0,0-4.65,17.38c-.63,2.91-1.11,5.85-1.58,8.78a65,65,0,0,0-.91,8.8c0,.11.15.11.18,0,.82-2.83,1.41-5.78,2-8.68s1.21-5.82,1.78-8.74c1.14-5.83,2.51-11.63,3.47-17.49C191.39,325.16,191.14,325.12,191.08,325.29Z" style="fill:#263238"></path><path d="M218.14,386.13c-3.76,3.24-7.43,5.21-10.81,5.27-20.17.39-50.72-49.43-61.43-71-6.63-13.37-7-25.64-1.42-28.43Z" style="opacity:0.1"></path><path d="M185.94,438.65H54.76C54.18,436,74.82,321.1,119.05,288.74c9.82-7.18,27.23-2.56,32.07,4.42C175.47,328.24,185.94,438.65,185.94,438.65Z" style="fill:#ebebeb"></path><path d="M116.15,289.6s11.58,50.88,12.77,55.27,5.48,93.78,5.48,93.78H53.57S71.76,324.65,116.15,289.6Z" style="fill:#B0BEC5"></path><path d="M151.12,293.16s5.07,39,5.67,41.26S174,438.65,174,438.65h12.59S175.58,320.79,151.12,293.16Z" style="fill:#B0BEC5"></path><path d="M100.64,304.36C77,337.65,42.75,397.27,58.53,407.88c26,17.45,97.35,22.13,113.67,22.53,7,.17,16.64-46.66,11.43-52.1s-79.94-2.51-80.89-7c-.55-2.55,8.59-26.15,13.22-54.45C121.3,284.19,107.31,295,100.64,304.36Z" style="fill:#eb9481"></path><path d="M171.1,375.72s21.31-2.19,35.32-3c7.82-.43,21.28,0,27.17,2.32,8.8,3.45,43.43,23.5,38.75,32-4.24,7.7-31.8-13.3-31.8-13.3s29.69,18.73,22.88,27.06-34.79-19.55-34.79-19.55,30.07,19.94,21.7,27.41c-6.33,5.65-33.1-18.16-33.1-18.16s25.72,17.31,19.46,23.4c-6.91,6.73-33-13.7-33-13.7-18.52,12.81-32.57,11.33-42.45,9.09C158.85,428.76,171.1,375.72,171.1,375.72Z" style="fill:#eb9481"></path><path d="M230.69,386.62c3.57,2.07,7.19,4.15,10.56,6.53s6.66,4.89,9.79,7.58c7.69,6.59,11.47,11.92,11.2,11.62-6.37-7.19-18.3-15.91-21.68-18.3s-6.6-4.92-10-7.31C230.51,386.68,230.6,386.57,230.69,386.62Z" style="fill:#263238"></path><path d="M221.86,398.63c4.44,2.85,8.95,5.51,13.27,8.55s10.17,7.48,14.24,10.8c.31.25.08.81-.25.56-4.2-3.15-10.4-7.41-14.64-10.51s-8.36-6.37-12.7-9.3C221.71,398.69,221.79,398.59,221.86,398.63Z" style="fill:#263238"></path><path d="M212.43,407.58c7,4,13.26,9.29,19.28,14.63.3.26,0,.34-.34.08-6.32-5-11.25-8.94-19.09-14.47C212.16,407.74,212.28,407.49,212.43,407.58Z" style="fill:#263238"></path><path d="M171.13,372.93l-20,60.43s-91.21-11.62-98-28.09,20.45-66.41,43-97.09c22.19-30.18,24.07-9.78,19.94,12.33s-11.89,47.87-10.58,49.62S171.13,372.93,171.13,372.93Z" style="fill:#B0BEC5"></path><path d="M140,424.76c.71-1.73,1.39-3.47,2.07-5.22q2-5.3,4.06-10.61c2.67-7.05,5.14-14.15,7.53-21.29,1.35-4.06,2.86-8.08,4-12.19a.16.16,0,0,0-.31-.11c-1.55,3.45-2.84,7-4.23,10.55s-2.83,7-4.17,10.58c-2.65,7-5.18,14.13-7.64,21.25-.68,2-1.45,4-2,6-.31,1-.7,2-1,3.1s-.51,2.11-.83,3.15a.09.09,0,0,0,.17.06C138.37,428.26,139.24,426.54,140,424.76Z" style="fill:#263238"></path><path d="M152.7,429.2l-1.41,4.23,0,.13-.15,0c-8.61-.78-17.18-1.87-25.72-3.19s-17.05-2.88-25.5-4.75a224.66,224.66,0,0,1-25-6.89,90.75,90.75,0,0,1-12-5.06,40,40,0,0,1-5.52-3.47,13.1,13.1,0,0,1-4.21-4.91,13.79,13.79,0,0,0,4.5,4.49,40.42,40.42,0,0,0,5.65,3,106.17,106.17,0,0,0,12.06,4.46c8.21,2.53,16.58,4.56,25,6.4s16.87,3.49,25.34,5,17,3.06,25.49,4.46l-.19.12Z" style="fill:#263238"></path><path d="M170.35,375.29l.68-2.39.1.14c-9,.24-18,.34-27,.25s-18-.27-27-.75c-2.26-.13-4.52-.28-6.78-.5-1.14-.12-2.26-.23-3.43-.44a8.32,8.32,0,0,1-.91-.2l-.52-.17a3.62,3.62,0,0,1-.37-.2,1.15,1.15,0,0,1-.3-.3,1.42,1.42,0,0,1-.14-.23.41.41,0,0,1,0-.12,3.46,3.46,0,0,1-.06-1.2c0-.3,0-.61.1-.89.7-4.56,1.74-8.91,2.79-13.31,2.1-8.78,4.46-17.48,7-26.14l-5.49,26.47c-.86,4.4-1.86,8.84-2.43,13.21,0,.27,0,.52-.08.79a3.81,3.81,0,0,1,0,.48s0,0,0,0a1,1,0,0,0-.07-.15c-.05-.08-.19-.17-.15-.15s0,0,0,0a1.54,1.54,0,0,0,.28.09c.22.06.48.11.74.16,1,.18,2.17.29,3.27.39,2.22.2,4.46.33,6.71.45q6.72.38,13.48.61l13.49.52c9,.32,18,.72,27,1.15h.16l0,.14Z" style="fill:#263238"></path><path d="M115.88,334.29a24.15,24.15,0,0,1-2,4.5,18,18,0,0,1-2.89,4c.7-1.49,1.44-2.93,2.23-4.36A36.14,36.14,0,0,1,115.88,334.29Z" style="fill:#263238"></path><path d="M144.77,311.05c-7.61,2.17-21.35-9-27-18.27-.38-.64,1.15-26.89.91-32.12,0-1.07,33.18,6.49,33.18,6.49s-2.73,11.11-2.27,20.23C149.65,288.14,152.12,309,144.77,311.05Z" style="fill:#eb9481"></path><path d="M118.23,277.1c15.53,11,30.66,6.75,31.34,6.55a90.41,90.41,0,0,1,2.3-16.5s-33.23-7.57-33.18-6.49C118.8,263.12,118.53,270.2,118.23,277.1Z" style="fill:#263238"></path><path d="M150.11,242.13c.85,7.74,7,13.41,13.84,12.66s11.61-7.63,10.76-15.37-7.05-13.41-13.84-12.67S149.26,234.38,150.11,242.13Z" style="fill:#455a64"></path><path d="M146.18,243.05c.94,8.62,7.84,14.93,15.4,14.1s12.91-8.49,12-17.11S165.7,225.12,158.15,226,145.23,234.44,146.18,243.05Z" style="fill:#c7c7c7"></path><path d="M114.1,221.24c-3.62,11.62,2.32,45.31,10.56,52.86,11.94,10.95,31.6,12.11,40.93-2.27,9-13.94.51-57.7-8.7-64.57C143.32,197.13,119.46,204.07,114.1,221.24Z" style="fill:#eb9481"></path><path d="M142.1,242.39c0-.09-.16.14-.14.23.51,2.25.71,4.91-1.2,6-.06,0,0,.15.05.13C143.24,248,142.94,244.44,142.1,242.39Z" style="fill:#263238"></path><path d="M139.62,240.41c-3.69.42-2.58,7.78.85,7.39S142.72,240.06,139.62,240.41Z" style="fill:#263238"></path><path d="M155.19,240.62c0-.09.2.08.21.17.27,2.29,1,4.87,3.14,5.31.07,0,.08.13,0,.13C156,246.26,155.08,242.83,155.19,240.62Z" style="fill:#263238"></path><path d="M156.87,237.93c3.62-.83,5,6.47,1.66,7.25S153.83,238.63,156.87,237.93Z" style="fill:#263238"></path><path d="M136.21,237.49a29,29,0,0,0,2.7-1.44,4.9,4.9,0,0,0,2.47-2,1.59,1.59,0,0,0-.53-1.85c-1.25-.81-2.68-.43-3.95.19a5.74,5.74,0,0,0-2.89,3A1.67,1.67,0,0,0,136.21,237.49Z" style="fill:#263238"></path><path d="M159.15,233.8a28.22,28.22,0,0,1-3-.32,4.91,4.91,0,0,1-3-.91,1.57,1.57,0,0,1-.2-1.91c.85-1.22,2.32-1.41,3.73-1.31A5.75,5.75,0,0,1,160.4,231,1.68,1.68,0,0,1,159.15,233.8Z" style="fill:#263238"></path><path d="M143.34,263.74c.63.45,1.29,1.1,2.12,1.05a6.1,6.1,0,0,0,2.37-1,.08.08,0,0,1,.11.11,3.1,3.1,0,0,1-2.7,1.67,2.45,2.45,0,0,1-2.1-1.74A.13.13,0,0,1,143.34,263.74Z" style="fill:#263238"></path><path d="M144.71,256.56a7.86,7.86,0,0,0,5.7,2.67,9.93,9.93,0,0,0,2.81-.3,2.83,2.83,0,0,0,.52-.14l.49-.15a.58.58,0,0,0,.38-.58v0a1,1,0,0,0,0-.23h0l0-.2c-.22-1.77-.79-4.41-.79-4.41.69.23,4.18,1.2,4,.29-1.6-7.51-3.38-15.87-6.56-23a.21.21,0,0,0-.41.12c1.25,7.28,3.78,14.3,5.15,21.6a13.55,13.55,0,0,0-3.83-.56c-.23.11,1.2,5.08,1.24,5.88v.09c-2.89.82-5.25.27-8.41-1.28C144.7,256.22,144.54,256.4,144.71,256.56Z" style="fill:#263238"></path><path d="M152.05,258.2a9.32,9.32,0,0,1-3.26,3.41,4.2,4.2,0,0,1-2.49.54c-1.89-.2-2.19-1.87-2.07-3.35a9.62,9.62,0,0,1,.49-2.3A12.06,12.06,0,0,0,152.05,258.2Z" style="fill:#263238"></path><path d="M148.79,261.61a4.2,4.2,0,0,1-2.49.54c-1.89-.2-2.19-1.87-2.07-3.35C146.21,258.71,148.34,259.74,148.79,261.61Z" style="fill:#ff99ba"></path><path d="M115.07,250.81c8.41-1.63,7.14-17.22,7.14-17.22s14-5.11,14-16.38c0,0,15.38,6.14,25.42.19s5.45-17.73,3.76-20.11-6.74,3.6-6.74,3.6-2-6.77-4-7.12-3.18,4.2-3.18,4.2-14.78-2-27.31.73-16.37,16.65-16.37,16.65-6.46,2.71-7.75,7.85S109.71,251.84,115.07,250.81Z" style="fill:#263238"></path><path d="M118.83,234.35c11.45-.64,17.46-9.48,17-20.49a.11.11,0,1,1,.21,0c1.57,10-5.63,22.91-17.27,21C118.53,234.81,118.53,234.36,118.83,234.35Z" style="fill:#263238"></path><path d="M108.11,215.09c.12-.06.22.13.11.2-2.85,2.05-6.22,3.82-7.88,7.08-2,3.95-.57,8.36,1.16,12.08,2.69,5.78,7.31,13.06,13.41,15.59.35.15.11.66-.24.54-7.23-2.6-13-12.1-15.21-19.07C96.94,223.71,101.05,218.21,108.11,215.09Z" style="fill:#263238"></path><path d="M149.07,218c5.49,2,12.82.77,17-3.52,5.09-5.22,2.56-11.76-1.06-16.92-.18-.26.17-.63.41-.4,4.42,4.31,6.14,11.8,2.14,17-4.13,5.36-12.78,6.85-18.83,4.62C148.23,218.58,148.57,217.81,149.07,218Z" style="fill:#263238"></path><path d="M121.13,248.7s-7.76-10.77-12.66-8,1,18.47,6.87,20.55a5.89,5.89,0,0,0,7.85-3.28Z" style="fill:#eb9481"></path><path d="M110.28,245.17a.08.08,0,0,0,0,.15c4.09,1.59,6.28,5.33,7.84,9.22-1.23-1.49-2.89-2.29-4.88-.83-.11.08,0,.25.11.22a3.63,3.63,0,0,1,4,1.21,17.11,17.11,0,0,1,2,3.2c.2.36.85.16.71-.26l0-.09C120,252.81,115.85,245.61,110.28,245.17Z" style="fill:#263238"></path><path d="M112.65,241.09s-4.19-16.72-.93-27c3.64-11.4,18.67-21.53,39.8-16.16,0,0-24.23.67-33,15.7-4,6.91-.16,26.85-.16,26.85Z" style="fill:#c7c7c7"></path><path d="M130.06,246.78c1.65,8.61-3.14,16.76-10.69,18.21s-15-4.36-16.67-13,3.14-16.77,10.7-18.21S128.41,238.17,130.06,246.78Z" style="fill:#c7c7c7"></path><path d="M126,247.05c1.48,7.74-2.82,15.07-9.61,16.37s-13.5-3.92-15-11.66,2.82-15.07,9.61-16.37S124.5,239.31,126,247.05Z" style="fill:#455a64"></path></g><g id="freepik--Device--inject-60"><rect x="167.27" y="433.32" width="133.47" height="5.99" style="fill:#455a64"></rect><rect x="233.57" y="433.32" width="67.18" height="5.99" style="fill:#37474f"></rect><polygon points="237.64 439.3 367.72 439.3 384.73 350.95 254.65 350.95 237.64 439.3" style="fill:#37474f"></polygon><polygon points="242.93 439.3 373.01 439.3 390.02 350.95 259.94 350.95 242.93 439.3" style="fill:#455a64"></polygon><path d="M308.56,395.12a7.14,7.14,0,0,0,7.22,7.92,8.8,8.8,0,0,0,8.61-7.92,7.13,7.13,0,0,0-7.22-7.91A8.81,8.81,0,0,0,308.56,395.12Z" style="fill:#fff"></path></g><g id="freepik--Plant--inject-60"><path d="M416.79,359.43c13.06,12.78,15.25,32.56,12.5,49.89-.07.39-.68.28-.68-.09,0-3.94.12-7.85.11-11.75-.07-.17-.13-.34-.21-.52-3.4-2.48-6.54-5.28-8.48-9.12-2.18-4.29-3-9.12-4.71-13.6-.15-.43.31-.31.61-.09,7.94,5.86,10.47,12.17,12.75,20.59a70.52,70.52,0,0,0-1.38-13.12c-1.72-8-5.11-15.92-10.86-21.85A.24.24,0,0,1,416.79,359.43Z" style="fill:#263238"></path><path d="M414.33,360.92c-2.24.07-3.65,3.66-5.4,4.71a1.68,1.68,0,0,1-2.48-.39c-1.74-2.42.64-5.41,2.88-7.08-1.6.66-2.93,1.82-4.65,2.14a1.62,1.62,0,0,1-2.1-1.26c-.76-3.3,3.38-4.77,6.22-4.84-1.38-.95-5.33-3.56-3.23-4.84s6.76,2.44,8.27,3.67c2.22,1.8,4.87,4.49,5,7.31C418.94,363.63,416.06,361.61,414.33,360.92Z" style="fill:#B0BEC5"></path><path d="M414.33,360.92c-2.24.07-3.65,3.66-5.4,4.71a1.68,1.68,0,0,1-2.48-.39c-1.74-2.42.64-5.41,2.88-7.08-1.6.66-2.93,1.82-4.65,2.14a1.62,1.62,0,0,1-2.1-1.26c-.76-3.3,3.38-4.77,6.22-4.84-1.38-.95-5.33-3.56-3.23-4.84s6.76,2.44,8.27,3.67c2.22,1.8,4.87,4.49,5,7.31C418.94,363.63,416.06,361.61,414.33,360.92Z" style="opacity:0.1"></path><path d="M415,361.47c-2.87-1.31-8.39.57-8.86-.51-.95-2.22,3.46-3.73,5.84-4-2.19-.59-6.39-1.54-6.26-3.65.16-2.58,6.44-.36,9.62,2.07,4,3.08,4,6,3.32,6.64C417.73,362.8,415.46,361.69,415,361.47Z" style="fill:#B0BEC5"></path><path d="M446.53,358.16c-13.54,12.28-16.48,32-14.39,49.38.06.39.67.31.69-.06.15-3.94.17-7.85.33-11.74l.23-.52c3.5-2.35,6.74-5,8.82-8.79,2.34-4.2,3.39-9,5.22-13.41.17-.43-.29-.32-.6-.11-8.16,5.55-10.93,11.76-13.53,20.09a71.28,71.28,0,0,1,1.88-13.06c2-7.92,5.72-15.71,11.68-21.42A.24.24,0,0,0,446.53,358.16Z" style="fill:#263238"></path><path d="M448.93,359.74c2.24.16,3.51,3.81,5.22,4.92a1.68,1.68,0,0,0,2.49-.3c1.83-2.35-.44-5.43-2.61-7.18,1.57.72,2.86,1.92,4.57,2.32a1.63,1.63,0,0,0,2.15-1.18c.88-3.27-3.2-4.9-6-5.07,1.42-.91,5.46-3.36,3.41-4.72s-6.84,2.18-8.4,3.35c-2.29,1.71-5,4.3-5.24,7.12C444.22,362.28,447.17,360.37,448.93,359.74Z" style="fill:#B0BEC5"></path><path d="M448.93,359.74c2.24.16,3.51,3.81,5.22,4.92a1.68,1.68,0,0,0,2.49-.3c1.83-2.35-.44-5.43-2.61-7.18,1.57.72,2.86,1.92,4.57,2.32a1.63,1.63,0,0,0,2.15-1.18c.88-3.27-3.2-4.9-6-5.07,1.42-.91,5.46-3.36,3.41-4.72s-6.84,2.18-8.4,3.35c-2.29,1.71-5,4.3-5.24,7.12C444.22,362.28,447.17,360.37,448.93,359.74Z" style="opacity:0.1"></path><path d="M448.26,360.27c2.92-1.19,8.36.89,8.87-.18,1-2.17-3.31-3.85-5.68-4.24,2.21-.51,6.44-1.29,6.4-3.41-.06-2.59-6.43-.61-9.7,1.71-4.12,2.92-4.21,5.88-3.57,6.5C445.46,361.5,447.77,360.47,448.26,360.27Z" style="fill:#B0BEC5"></path><path d="M432.69,390.59a134.09,134.09,0,0,1-4.2,19.42.49.49,0,0,1-.95-.19c.89-6,2.51-11.86,3.4-17.84a89.92,89.92,0,0,0,1-18.32c-.57-10.08-3.31-20.81-9.89-28.7-.14-.18.16-.45.31-.27,13.17,15.36,11.08,34.19,11.07,35.87,1.86-6.36,3.78-13.64,10.84-20.12.3-.28.54-.14.49.33-1.26,11.79-4.54,18-11.38,24.25Q433.14,387.83,432.69,390.59Z" style="fill:#263238"></path><path d="M422,346.73c-2.37-1.05-5.64,2-8,2.17a2,2,0,0,1-2.38-1.65c-.58-3.39,3.4-5.29,6.56-5.9-2-.12-3.95.41-5.91-.11a1.88,1.88,0,0,1-1.55-2.37c.88-3.81,5.91-3.25,8.9-1.89-.95-1.69-3.74-6.37-.92-6.65s5.79,5.93,6.74,8c1.4,3,2.79,7.11,1.47,10.09C425.38,351.87,423.42,348.32,422,346.73Z" style="fill:#B0BEC5"></path><path d="M422,346.73c-2.37-1.05-5.64,2-8,2.17a2,2,0,0,1-2.38-1.65c-.58-3.39,3.4-5.29,6.56-5.9-2-.12-3.95.41-5.91-.11a1.88,1.88,0,0,1-1.55-2.37c.88-3.81,5.91-3.25,8.9-1.89-.95-1.69-3.74-6.37-.92-6.65s5.79,5.93,6.74,8c1.4,3,2.79,7.11,1.47,10.09C425.38,351.87,423.42,348.32,422,346.73Z" style="opacity:0.1"></path><path d="M422.37,347.63c-2.32-2.8-9-3.63-8.94-5,.13-2.77,5.47-2.13,8.09-1.24-2-1.72-5.86-4.81-4.66-6.94,1.46-2.6,6.87,2.87,8.94,7,2.61,5.2,1.09,8.27.1,8.55C424.55,350.4,422.75,348.1,422.37,347.63Z" style="fill:#B0BEC5"></path><path d="M441.35,394.14l5.81,44.39H411.81c.73-3.94,7.31-44.44,7.31-44.44Z" style="fill:#B0BEC5"></path></g></svg>